<svg width="100" height="95" viewBox="0 0 100 95" fill="none" xmlns="http://www.w3.org/2000/svg">
<path d="M13.2714 9.27143V2.82669e-06H9.27143V9.27143H-2.52914e-06V13.2714H9.27143V22.541H13.2714V13.2714H22.543V9.27143H13.2714Z" transform="translate(68.3477 62.5879)" fill="black"/>
<path d="M79.6554 11.8846C76.6997 7.92228 73.1558 4.48134 69.0625 1.69914C68.7344 1.47448 68.0722 1.04487 68.0722 1.04487L66.4746 0.00771874L65.3613 1.55452C60.4668 8.34945 52.5624 12.4081 44.2207 12.4081C35.8769 12.4081 27.9746 8.34945 23.0801 1.55269L21.9629 1.14059e-06L19.5449 1.58783C7.3066 9.83003 0 23.5507 0 38.289V44.7167H63.5222C67.2536 49.5277 73.0728 52.6424 79.6191 52.6424C90.8573 52.6424 100 43.4998 100 32.2635C100 21.0374 90.8768 11.9045 79.6554 11.8846ZM3.99993 40.7168V38.289C3.99993 25.1913 10.3437 12.9766 21.0194 5.42973C26.7069 12.338 35.242 16.4082 44.2205 16.4082C53.199 16.4082 61.7341 12.338 67.4216 5.42973C70.2576 7.43457 72.8018 9.77925 75.0227 12.4249C65.9942 14.5171 59.2381 22.608 59.2381 32.2637C59.2381 35.2812 59.9149 38.1379 61.0973 40.7168H3.99993ZM79.6191 48.6425C70.5859 48.6425 63.2383 41.2949 63.2383 32.2635C63.2383 23.2304 70.5859 15.8827 79.6191 15.8827C88.6522 15.8827 95.9999 23.2304 95.9999 32.2635C95.9999 41.2949 88.6522 48.6425 79.6191 48.6425Z" transform="translate(0 41.5957)" fill="black"/>
<path d="M21.9277 -7.90357e-08C9.83591 -7.90357e-08 0 9.83795 0 21.9298C0 34.0216 9.83591 43.8575 21.9277 43.8575C34.0196 43.8575 43.8575 34.0216 43.8575 21.9298C43.8573 9.83774 34.0196 -7.90357e-08 21.9277 -7.90357e-08ZM21.9277 39.8574C12.0431 39.8574 3.99994 31.8144 3.99994 21.9296C3.99994 12.0429 12.0429 3.99993 21.9277 3.99993C31.8144 3.99993 39.8574 12.0429 39.8574 21.9296C39.8574 31.8144 31.8144 39.8574 21.9277 39.8574Z" transform="translate(22.293)" fill="black"/>
</svg>
