<svg width="80" height="60" viewBox="0 0 80 60" fill="none" xmlns="http://www.w3.org/2000/svg">
<path d="M77.1646 50.5568C75.5735 50.5568 74.3306 49.1296 74.3306 47.4279V41.8837C74.3306 24.8667 64.0386 9.71613 50.0178 4.77573V3.01914C50.0178 1.37234 48.7748 0 47.2832 0H32.7154C31.2238 0 29.9808 1.37234 29.9808 3.01914V4.77573C15.9599 9.49656 5.66803 24.0433 5.66803 41.0603V47.373C5.66803 49.1296 4.37532 50.5019 2.83401 50.5019C1.24299 50.5019 0 51.9292 0 53.6309V56.7598C0 58.5164 1.29271 59.8887 2.83401 59.8887H77.1646C78.7556 59.8887 79.9986 58.4615 79.9986 56.7598V53.6309C80.0483 51.9841 78.7556 50.5568 77.1646 50.5568Z" fill="#E4AE48"/>
<path d="M50.0176 18.9931C50.8628 18.9931 51.4595 17.7306 51.4595 15.8642V5.37954C51.012 5.21486 50.5148 4.99528 50.0176 4.8306V3.07402C50.0176 2.14083 49.6199 1.31743 49.0729 0.768494C48.7746 1.31743 48.6255 2.19572 48.6255 3.1838V15.8093C48.5757 17.7306 49.1724 18.9931 50.0176 18.9931Z" fill="#B28F20"/>
<path d="M2.83419 50.5569C2.23756 50.5569 1.69064 50.7764 1.24316 51.1058H78.7559C78.3084 50.7764 77.7614 50.5569 77.1648 50.5569C75.7727 50.5569 74.5794 49.4041 74.3308 47.922H5.66821C5.41961 49.4041 4.27606 50.5569 2.83419 50.5569Z" fill="#B28F20"/>
<path d="M30.0305 18.9931C30.8758 18.9931 31.4724 17.7306 31.4724 15.8642V3.23874C31.4724 2.19577 31.3233 1.37236 31.0249 0.823425C30.4283 1.37236 30.0803 2.19576 30.0803 3.12895V4.88554C29.5831 5.05022 29.1356 5.2149 28.6384 5.43448V15.974C28.5887 17.7306 29.1356 18.9931 30.0305 18.9931Z" fill="#B28F20"/>
<path d="M40.0239 21.2987C40.8692 21.2987 41.4659 20.5302 41.4659 19.7068V0.768547C41.4659 0.494081 41.4161 0.274505 41.3167 0.0549316H38.7312C38.6318 0.274505 38.582 0.494081 38.582 0.768547V19.7068C38.582 20.64 39.1787 21.2987 40.0239 21.2987Z" fill="#B28F20"/>
<path d="M53.001 26.8977L68.8118 21.079C66.7236 17.456 64.1382 14.2173 61.155 11.5275C60.2103 10.7041 59.2656 9.88073 58.2713 9.16711L53.001 26.8977Z" fill="#B28F20"/>
<path d="M26.7487 26.8978L21.4785 9.22217C21.2796 9.38685 21.031 9.55152 20.8321 9.71621C16.8546 12.6804 13.4737 16.5779 10.938 21.0791L26.7487 26.8978Z" fill="#B28F20"/>
<path opacity="0.1" d="M14.6672 56.8695V53.7406C14.6672 51.984 15.9599 50.6117 17.5012 50.6117C19.0923 50.6117 20.3353 49.1845 20.3353 47.4828V41.17C20.3353 24.1531 30.6272 9.60631 44.648 4.88548V3.12888C44.648 1.48208 45.8413 0.164635 47.3329 0.109741H47.2832H32.7154C31.2238 0.109741 29.9808 1.48208 29.9808 3.12888V4.88548C15.9599 9.60631 5.66803 24.1531 5.66803 41.17V47.4828C5.66803 49.2393 4.37532 50.6117 2.83401 50.6117C1.24299 50.6117 0 52.0389 0 53.7406V56.8695C0 58.6261 1.29271 59.9985 2.83401 59.9985H17.5012C15.9599 60.0534 14.6672 58.6261 14.6672 56.8695Z" fill="#252211"/>
</svg>
