<svg width="100" height="126" viewBox="0 0 100 126" fill="none" xmlns="http://www.w3.org/2000/svg">
<path d="M34.7494 14.3486L2.58613 0.158235C1.36981 -0.37784 -7.02197e-07 0.513903 -7.02197e-07 1.84405C-7.02197e-07 3.05573 -7.02197e-07 42.7446 -7.02197e-07 43.7502C-7.02197e-07 45.082 0.787466 46.29 2.006 46.8278L33.2621 60.6179C33.5 60.7229 33.7534 60.7746 34.0058 60.7746C34.3577 60.7746 34.708 60.674 35.0121 60.4757C35.5339 60.1355 35.8485 59.5548 35.8485 58.9321C35.8485 57.8629 35.8485 17.2431 35.8485 16.0344C35.8482 15.3042 35.4174 14.6433 34.7494 14.3486ZM32.1628 56.1051L3.68472 43.5409V16.0931L32.1628 28.6576V56.1051ZM32.1628 24.6297L3.68472 12.065V4.67106L32.1628 17.2355V24.6297Z" transform="translate(7.99731 51.7144)" fill="black"/>
<path d="M6.53571 7.89009V3.78165C8.09962 3.89866 8.63668 4.64549 9.29025 4.64549C10.1541 4.64549 10.5274 3.57163 10.5274 3.03482C10.5274 1.68068 8.05287 1.23738 6.53571 1.19062V0.583563C6.53571 0.280522 6.13892 -4.33271e-07 5.74212 -4.33271e-07C5.29833 -4.33271e-07 4.94853 0.280277 4.94853 0.583563V1.23738C2.61428 1.54091 0.419804 2.82455 0.419804 5.78912C0.419804 8.77694 2.82431 9.68729 4.94853 10.4809V15.1261C2.89456 14.8928 2.19399 13.3754 1.3069 13.3754C0.583318 13.3754 -1.46416e-06 14.3558 -1.46416e-06 15.0094C-1.46416e-06 16.3165 2.12398 17.8339 4.94878 17.9039V18.5575C4.94878 18.861 5.29882 19.1411 5.74236 19.1411C6.13916 19.1411 6.53595 18.861 6.53595 18.5575V17.8339C9.15048 17.4136 10.9477 15.7562 10.9477 12.8851C10.9474 9.71079 8.61293 8.66043 6.53571 7.89009ZM5.13506 7.37654C4.0612 6.95624 3.26736 6.5127 3.26736 5.48583C3.26736 4.59874 3.96769 4.03843 5.13506 3.85191V7.37654ZM6.34894 15.1031V11.0414C7.35279 11.4852 8.09987 12.0453 8.09987 13.1892C8.09987 14.2863 7.37605 14.8928 6.34894 15.1031Z" transform="translate(43.9716 11.604)" fill="black"/>
<path d="M98.1575 76.046C97.1397 76.046 96.315 76.8706 96.315 77.8884V100.756C96.315 100.928 96.213 101.085 96.0556 101.154L51.8424 120.661V60.4579L63.376 55.3694L96.3148 40.8368V69.2899C96.3148 70.3077 97.1395 71.1324 98.1573 71.1324C99.1751 71.1324 99.9997 70.3077 99.9997 69.2899C99.9997 68.2259 99.9995 37.6091 99.9995 38.0072C99.9998 37.2733 99.556 36.6087 98.8924 36.3201L72.0169 24.6325C73.2912 12.7245 65.1258 2.34569 54.1746 0.0417921C53.1786 -0.169456 52.2019 0.469428 51.9924 1.46545C51.7826 2.46123 52.42 3.43816 53.4161 3.64769C67.4338 6.59757 73.3887 23.7471 63.7168 34.7185H59.8311C71.3756 25.3036 64.8518 5.99027 49.4922 5.99027C34.2992 5.99027 27.5031 25.0266 39.2096 34.7185H35.2676C25.6628 23.8205 31.4789 6.60638 45.5757 3.64622C46.5717 3.43718 47.2094 2.46025 47.0003 1.46447C46.791 0.468204 45.8134 -0.1697 44.8186 0.0398339C33.5487 2.40615 25.5155 13.1683 27.0147 25.0537L1.10764 36.3204C0.459703 36.6019 0.0127286 37.2503 0.00171335 37.9827C0.00171335 37.9903 -1.19523e-07 37.9976 -1.19523e-07 38.0052C-1.19523e-07 38.0059 0.000244529 38.0067 0.000244529 38.0074C0.000244529 38.0081 -1.19523e-07 38.0091 -1.19523e-07 38.0098V100.756C-1.19523e-07 102.388 0.964445 103.867 2.45689 104.526L49.2562 125.174C49.7145 125.375 50.2618 125.386 50.744 125.174L97.5436 104.526C99.0358 103.867 100 102.388 100 100.756V77.8887C100 76.8706 99.1753 76.046 98.1575 76.046ZM49.4922 9.67498C55.0084 9.67498 59.8145 13.2104 61.4511 18.4725C64.8068 29.2603 53.3696 38.2612 43.7846 33.3406C32.081 27.3251 36.4423 9.67498 49.4922 9.67498ZM3.68472 100.756V40.8368C4.93972 41.3903 47.1393 60.0087 48.1572 60.4579V120.661L3.94419 101.154C3.78655 101.085 3.68472 100.928 3.68472 100.756ZM49.9999 57.2432L6.43486 38.0221L27.7978 28.7318C28.435 30.8392 29.385 32.8554 30.6297 34.7185H29.5681C28.5505 34.7185 27.7256 35.5432 27.7256 36.561C27.7256 37.5788 28.5505 38.4035 29.5681 38.4035C30.9509 38.4035 66.8375 38.4035 69.4244 38.4035C70.4422 38.4035 71.2669 37.5788 71.2669 36.561C71.2669 35.5432 70.4422 34.7185 69.4244 34.7185H68.3544C69.676 32.7404 70.6645 30.5888 71.3002 28.3394L93.5656 38.0223L49.9999 57.2432Z" fill="black"/>
<path d="M20.3709 8.00316L2.5867 0.156878C1.65531 -0.253134 0.567978 0.168138 0.157232 1.09905C-0.253514 2.0302 0.168247 3.11777 1.09916 3.52876L18.8834 11.375C19.8192 11.787 20.9038 11.3601 21.3129 10.4329C21.7236 9.50147 21.3018 8.41415 20.3709 8.00316Z" transform="translate(15.1089 77.6577)" fill="black"/>
<path d="M20.3709 8.0034L2.5867 0.156877C1.65555 -0.253134 0.567978 0.168137 0.157232 1.09905C-0.253514 2.0302 0.168247 3.11778 1.09916 3.52852L18.8834 11.3748C19.815 11.786 20.9024 11.3635 21.3129 10.4329C21.7236 9.50147 21.3018 8.41414 20.3709 8.0034Z" transform="translate(15.1089 85.9507)" fill="black"/>
</svg>
