<svg width="80" height="60" viewBox="0 0 80 60" fill="none" xmlns="http://www.w3.org/2000/svg">
<path d="M57.0632 60H0V36.6295H57.0632V60Z" fill="#B28F20"/>
<path d="M53.2746 56.7054H3.86475V39.9506H53.2746V56.7054Z" fill="#E4AE48"/>
<path d="M42.1997 50.0087C41.1604 50.0087 40.3179 49.2563 40.3179 48.3282V48.3278C40.3179 47.3997 41.1604 46.6472 42.1997 46.6472C43.2389 46.6472 44.0814 47.3997 44.0814 48.3278V48.3282C44.0814 49.2563 43.2389 50.0087 42.1997 50.0087Z" fill="#B28F20"/>
<path d="M14.9403 50.0087C13.9012 50.0087 13.0586 49.2563 13.0586 48.3282V48.3278C13.0586 47.3997 13.9012 46.6472 14.9403 46.6472C15.9795 46.6472 16.8221 47.3997 16.8221 48.3278V48.3282C16.8221 49.2563 15.9795 50.0087 14.9403 50.0087Z" fill="#B28F20"/>
<path d="M30.6335 55.4627H26.5059C23.236 55.4627 20.5854 53.0956 20.5854 50.1754V46.4806C20.5854 43.5606 23.236 41.1935 26.5059 41.1935H30.6335C33.9032 41.1935 36.554 43.5606 36.554 46.4806V50.1754C36.554 53.0956 33.9032 55.4627 30.6335 55.4627Z" fill="#B28F20"/>
<path d="M47.6886 37.8445C53.8378 37.1838 60.5093 36.2991 64.7895 32.3013C68.4488 28.8831 69.8391 23.5936 74.3568 21.1266C76.1277 20.1596 78.3716 19.6238 79.4223 18.0254C80.4378 16.4805 79.9384 14.5174 79.2668 12.8294C77.9352 9.48182 76.0841 6.46405 73.6929 3.62488C73.5852 1.85472 71.7798 0.42851 69.8298 0.0967638C67.8797 -0.234978 65.8641 0.326912 64.1133 1.16258C62.3626 1.99846 60.791 3.10448 59.0692 3.98678C53.8921 6.63966 47.7314 7.11342 41.8318 7.92235C35.9322 8.73128 29.1622 9.70021 25.6403 14.0039C23.1687 17.0242 21.5774 19.7338 20.1782 22.8991C19.2516 24.9957 18.3104 27.1585 18.3406 29.4123C18.3705 31.6661 19.6097 34.0606 21.9388 34.9287C24.7441 33.1952 27.5384 31.2971 30.3436 29.5633C29.9101 28.8735 29.6711 28.3985 29.2376 27.7087C31.7742 26.891 33.4902 24.7294 33.6828 22.327C36.489 23.0001 39.3558 22.4891 41.9061 21.2458C43.036 22.2842 43.6348 23.1894 44.7645 24.2278C43.5409 26.3301 41.302 28.136 38.9029 29.1479C35.999 30.3729 32.8797 31.1752 30.0488 32.5297C27.2179 33.8843 24.5966 35.9439 23.7109 38.7009C22.8252 41.4577 24.2682 44.9093 27.3345 45.7618C29.2273 46.288 31.272 45.7762 33.135 45.1717C38.6637 43.3785 43.134 41.1683 47.6886 37.8445Z" fill="#E4AE48"/>
</svg>
