<svg width="32" height="32" viewBox="0 0 32 32" fill="none" xmlns="http://www.w3.org/2000/svg">
<path d="M4.73535 9.17737C7.3506 9.17737 9.47069 7.12295 9.47069 4.58869C9.47069 2.05443 7.3506 0 4.73535 0C2.12009 0 0 2.05443 0 4.58869C0 7.12295 2.12009 9.17737 4.73535 9.17737Z" transform="translate(11.2872 11.3602)" fill="white"/>
<path d="M16.5221 2.02312C16.5221 5.94529 13.2406 9.12434 9.19276 9.12434C5.14488 9.12434 1.86337 5.94529 1.86337 2.02312C1.86337 1.32027 1.96943 0.641309 2.16585 0H0V9.96076C0 10.4767 0.421647 10.898 0.937248 10.898H17.3576C17.8735 10.898 18.2955 10.4767 18.2955 9.96076V0H16.2197C16.4158 0.641309 16.5221 1.32027 16.5221 2.02312Z" transform="translate(6.82983 14.1819)" fill="white"/>
<path d="M1.06165 4.66398H3.72673C4.31075 4.66398 4.78805 4.18668 4.78805 3.60266V1.06165C4.78805 0.477299 4.31075 0 3.72673 0H1.06165C0.477299 0 1.68182e-07 0.477299 1.68182e-07 1.06165V3.60266C-0.000327198 4.18635 0.477299 4.66398 1.06165 4.66398Z" transform="translate(20.3258 6.82983)" fill="white"/>
<path d="M16 0C7.16342 0 0 7.16342 0 16C0 24.8366 7.16342 32 16 32C24.8366 32 32 24.8366 32 16C32 7.16342 24.8366 0 16 0ZM24.7636 27.7904H7.23675C5.57144 27.7904 4.20992 26.5579 4.20992 24.7642V7.23642C4.20992 5.44213 5.57144 4.20992 7.23675 4.20992H24.7636C26.4286 4.20992 27.7904 5.44213 27.7904 7.23642V24.7642C27.7904 26.5579 26.4282 27.7904 24.7636 27.7904Z" fill="white"/>
</svg>
