<svg width="28" height="56" viewBox="0 0 28 56" fill="none" xmlns="http://www.w3.org/2000/svg">
<path d="M27.9989 5.83321V1.16669C27.9989 0.690474 27.7095 0.260965 27.2674 0.0843269C27.1262 0.0273433 26.9781 0 26.8323 0C26.5202 0 26.2148 0.125342 25.9893 0.360057L0.322952 27.193C-0.107651 27.6441 -0.107651 28.355 0.322952 28.8062L25.9893 55.6391C26.3197 55.9832 26.8255 56.0949 27.2676 55.9148C27.7097 55.7382 27.9991 55.3087 27.9991 54.8325V50.1658C27.9991 49.8674 27.8851 49.5803 27.6801 49.3638L7.439 27.9996L27.68 6.63535C27.885 6.4189 27.9989 6.1318 27.9989 5.83321Z" fill="#488BE4"/>
</svg>
