<svg width="32" height="32" viewBox="0 0 32 32" fill="none" xmlns="http://www.w3.org/2000/svg">
<path d="M16 0C7.16342 0 0 7.16342 0 16C0 24.8366 7.16342 32 16 32C24.8366 32 32 24.8366 32 16C32 7.16342 24.8366 0 16 0ZM10.005 26.8329H5.50695V12.3607H10.005V26.8329ZM7.75693 10.3824C6.31521 10.3824 5.14815 9.21371 5.14815 7.77395C5.14848 6.33551 6.31521 5.16681 7.75693 5.16681C9.19472 5.16681 10.3634 6.33551 10.3634 7.77395C10.3634 9.21404 9.19439 10.3824 7.75693 10.3824ZM26.8515 26.8329H22.3571V19.7948C22.3571 18.1164 22.326 15.9578 20.0191 15.9578C17.6797 15.9578 17.3199 17.7858 17.3199 19.6734V26.8325H12.8259V12.3607H17.1399V14.3383H17.2004C17.8012 13.2004 19.2678 12.0009 21.4562 12.0009C26.0108 12.0009 26.8515 14.9983 26.8515 18.8949V26.8329Z" fill="white"/>
</svg>
