<!DOCTYPE svg PUBLIC "-//W3C//DTD SVG 20010904//EN" "http://www.w3.org/TR/2001/REC-SVG-20010904/DTD/svg10.dtd">
<svg version="1.0" xmlns="http://www.w3.org/2000/svg" width="200px" height="73px" viewBox="0 0 2000 730" preserveAspectRatio="xMidYMid meet">
<g id="layer101" fill="#000000" stroke="none">
 <path d="M840 711 c-25 -9 -70 -34 -100 -54 l-55 -37 -285 0 c-307 0 -310 0 -310 -52 0 -24 -4 -28 -29 -28 -62 0 -61 3 -61 -180 l0 -168 50 -7 c28 -4 47 -11 44 -17 -3 -5 -3 -20 0 -34 l6 -24 299 0 298 0 54 -38 c30 -22 76 -46 103 -55 109 -37 312 -11 411 52 l49 31 282 0 c155 0 289 3 298 6 10 4 16 18 16 40 0 29 4 34 23 34 12 0 32 3 45 6 21 6 22 10 22 145 0 81 -4 140 -10 144 -5 3 -10 15 -10 25 0 29 -28 50 -66 50 -31 0 -34 3 -34 30 0 19 -7 33 -19 40 -12 6 -125 10 -298 10 l-279 0 -50 32 c-86 55 -133 68 -247 68 -73 -1 -115 -6 -147 -19z m982 -211 c-4 -30 -4 -30 47 -30 l51 0 0 -104 0 -105 -47 -3 c-46 -3 -48 -4 -51 -35 l-3 -33 -820 0 -819 0 0 35 0 34 -57 3 -58 3 -3 98 c-3 97 -3 97 21 97 14 0 39 3 56 6 26 6 31 11 31 35 l0 29 828 0 829 0 -5 -30z"/>
 <path d="M200 410 c-11 -7 -11 -11 -1 -23 8 -10 9 -17 1 -22 -25 -16 6 -53 42 -49 12 1 27 3 31 3 5 1 7 7 4 14 -2 6 -17 11 -33 10 l-29 -2 31 9 c54 17 52 58 -2 65 -17 2 -36 0 -44 -5z"/>
 <path d="M440 365 c0 -41 3 -56 13 -53 6 3 13 14 15 25 4 27 42 19 42 -8 0 -11 7 -19 15 -19 12 0 15 13 15 55 0 42 -3 55 -15 55 -8 0 -15 -8 -15 -19 0 -27 -38 -35 -42 -8 -2 11 -9 22 -15 25 -10 3 -13 -12 -13 -53z"/>
 <path d="M840 364 c0 -41 4 -54 15 -54 11 0 15 11 15 43 0 43 1 43 30 39 23 -3 30 0 30 12 0 12 -10 15 -45 14 l-45 -1 0 -53z"/>
 <path d="M971 411 c-7 -5 -11 -14 -7 -19 9 -15 36 -4 36 14 0 16 -9 18 -29 5z"/>
 <path d="M1015 410 c-3 -5 -3 -14 0 -20 3 -5 -2 -10 -12 -10 -42 0 -57 -42 -22 -61 20 -10 21 -9 17 9 -5 16 0 21 23 26 20 4 29 12 29 25 0 23 -25 47 -35 31z"/>
 <path d="M1080 407 c0 -13 28 -58 43 -68 5 -3 8 -10 7 -15 -1 -5 2 -10 7 -11 11 -4 65 86 58 98 -10 15 -21 10 -33 -13 -6 -13 -11 -17 -11 -10 -1 6 -10 12 -20 12 -11 0 -23 5 -26 10 -9 14 -25 12 -25 -3z"/>
 <path d="M1230 363 c0 -63 23 -71 28 -10 3 34 6 37 33 37 19 0 29 5 29 15 0 12 -11 15 -45 13 l-45 -1 0 -54z"/>
 <path d="M1487 413 c-13 -13 -7 -53 8 -53 10 0 15 10 15 30 0 29 -9 38 -23 23z"/>
 <path d="M1574 405 c-8 -19 2 -45 16 -45 5 0 10 14 10 30 0 31 -16 41 -26 15z"/>
 <path d="M1640 390 c0 -21 4 -30 13 -27 6 2 12 14 12 27 0 13 -6 25 -12 28 -9 2 -13 -7 -13 -28z"/>
 <path d="M1682 377 c-39 -40 -53 -67 -34 -67 13 0 92 84 92 98 0 21 -15 13 -58 -31z"/>
 <path d="M1780 365 c0 -41 3 -56 13 -52 7 2 12 22 12 52 0 30 -5 50 -12 53 -10 3 -13 -12 -13 -53z"/>
 <path d="M319 389 c-13 -26 2 -69 26 -69 18 0 19 4 3 30 -10 15 -10 22 0 32 16 16 15 28 -3 28 -8 0 -19 -10 -26 -21z"/>
 <path d="M372 398 c3 -7 13 -15 22 -16 12 -3 17 1 14 10 -3 7 -13 15 -22 16 -12 3 -17 -1 -14 -10z"/>
 <path d="M580 396 c-15 -20 -9 -56 12 -70 23 -14 32 -2 16 23 -10 16 -10 23 0 33 6 6 12 16 12 20 0 13 -27 9 -40 -6z"/>
 <path d="M630 402 c0 -4 5 -13 11 -19 8 -8 8 -17 0 -31 -14 -27 -14 -32 4 -32 23 0 39 39 26 66 -10 22 -41 34 -41 16z"/>
 <path d="M709 389 c-13 -26 2 -69 26 -69 18 0 19 4 3 30 -10 15 -10 22 0 32 16 16 15 28 -3 28 -8 0 -19 -10 -26 -21z"/>
 <path d="M760 402 c0 -4 6 -14 12 -20 10 -10 10 -17 0 -33 -16 -25 -7 -37 16 -23 21 14 27 50 12 70 -13 15 -40 19 -40 6z"/>
 <path d="M1362 398 c-16 -16 -16 -91 1 -86 6 3 14 20 17 39 7 48 34 46 38 -3 4 -53 32 -52 32 0 0 45 -14 62 -50 62 -14 0 -31 -5 -38 -12z"/>
 <path d="M1511 356 c-37 -38 -25 -63 13 -27 l23 21 18 -20 c10 -11 22 -20 27 -20 17 0 7 27 -20 53 l-28 27 -33 -34z"/>
 <path d="M1714 355 c-8 -19 2 -45 16 -45 5 0 10 14 10 30 0 31 -16 41 -26 15z"/>
 <path d="M375 339 c-4 -6 -4 -13 -1 -16 8 -8 36 5 36 17 0 13 -27 13 -35 -1z"/>
 <path d="M1023 343 c-14 -5 -18 -33 -5 -33 4 0 14 5 22 10 17 11 2 30 -17 23z"/>
 </g>
<g id="layer102" fill="#ea1b23" stroke="none">
 <path d="M200 410 c-11 -7 -11 -11 -1 -23 8 -10 9 -17 1 -22 -25 -16 6 -53 42 -49 12 1 27 3 31 3 5 1 7 7 4 14 -2 6 -17 11 -33 10 l-29 -2 31 9 c54 17 52 58 -2 65 -17 2 -36 0 -44 -5z"/>
 <path d="M440 365 c0 -41 3 -56 13 -53 6 3 13 14 15 25 4 27 42 19 42 -8 0 -11 7 -19 15 -19 12 0 15 13 15 55 0 42 -3 55 -15 55 -8 0 -15 -8 -15 -19 0 -27 -38 -35 -42 -8 -2 11 -9 22 -15 25 -10 3 -13 -12 -13 -53z"/>
 <path d="M840 364 c0 -41 4 -54 15 -54 11 0 15 11 15 43 0 43 1 43 30 39 23 -3 30 0 30 12 0 12 -10 15 -45 14 l-45 -1 0 -53z"/>
 <path d="M971 411 c-7 -5 -11 -14 -7 -19 9 -15 36 -4 36 14 0 16 -9 18 -29 5z"/>
 <path d="M1015 410 c-3 -5 -3 -14 0 -20 3 -5 -2 -10 -12 -10 -42 0 -57 -42 -22 -61 20 -10 21 -9 17 9 -5 16 0 21 23 26 20 4 29 12 29 25 0 23 -25 47 -35 31z"/>
 <path d="M1080 407 c0 -13 28 -58 43 -68 5 -3 8 -10 7 -15 -1 -5 2 -10 7 -11 11 -4 65 86 58 98 -10 15 -21 10 -33 -13 -6 -13 -11 -17 -11 -10 -1 6 -10 12 -20 12 -11 0 -23 5 -26 10 -9 14 -25 12 -25 -3z"/>
 <path d="M1230 363 c0 -63 23 -71 28 -10 3 34 6 37 33 37 19 0 29 5 29 15 0 12 -11 15 -45 13 l-45 -1 0 -54z"/>
 <path d="M1487 413 c-13 -13 -7 -53 8 -53 10 0 15 10 15 30 0 29 -9 38 -23 23z"/>
 <path d="M1574 405 c-8 -19 2 -45 16 -45 5 0 10 14 10 30 0 31 -16 41 -26 15z"/>
 <path d="M1640 390 c0 -21 4 -30 13 -27 6 2 12 14 12 27 0 13 -6 25 -12 28 -9 2 -13 -7 -13 -28z"/>
 <path d="M1682 377 c-39 -40 -53 -67 -34 -67 13 0 92 84 92 98 0 21 -15 13 -58 -31z"/>
 <path d="M1780 365 c0 -41 3 -56 13 -52 7 2 12 22 12 52 0 30 -5 50 -12 53 -10 3 -13 -12 -13 -53z"/>
 <path d="M319 389 c-13 -26 2 -69 26 -69 18 0 19 4 3 30 -10 15 -10 22 0 32 16 16 15 28 -3 28 -8 0 -19 -10 -26 -21z"/>
 <path d="M372 398 c3 -7 13 -15 22 -16 12 -3 17 1 14 10 -3 7 -13 15 -22 16 -12 3 -17 -1 -14 -10z"/>
 <path d="M580 396 c-15 -20 -9 -56 12 -70 23 -14 32 -2 16 23 -10 16 -10 23 0 33 6 6 12 16 12 20 0 13 -27 9 -40 -6z"/>
 <path d="M630 402 c0 -4 5 -13 11 -19 8 -8 8 -17 0 -31 -14 -27 -14 -32 4 -32 23 0 39 39 26 66 -10 22 -41 34 -41 16z"/>
 <path d="M709 389 c-13 -26 2 -69 26 -69 18 0 19 4 3 30 -10 15 -10 22 0 32 16 16 15 28 -3 28 -8 0 -19 -10 -26 -21z"/>
 <path d="M760 402 c0 -4 6 -14 12 -20 10 -10 10 -17 0 -33 -16 -25 -7 -37 16 -23 21 14 27 50 12 70 -13 15 -40 19 -40 6z"/>
 <path d="M1362 398 c-16 -16 -16 -91 1 -86 6 3 14 20 17 39 7 48 34 46 38 -3 4 -53 32 -52 32 0 0 45 -14 62 -50 62 -14 0 -31 -5 -38 -12z"/>
 <path d="M1511 356 c-37 -38 -25 -63 13 -27 l23 21 18 -20 c10 -11 22 -20 27 -20 17 0 7 27 -20 53 l-28 27 -33 -34z"/>
 <path d="M1714 355 c-8 -19 2 -45 16 -45 5 0 10 14 10 30 0 31 -16 41 -26 15z"/>
 <path d="M375 339 c-4 -6 -4 -13 -1 -16 8 -8 36 5 36 17 0 13 -27 13 -35 -1z"/>
 <path d="M1023 343 c-14 -5 -18 -33 -5 -33 4 0 14 5 22 10 17 11 2 30 -17 23z"/>
 </g>

</svg>