<svg width="24" height="12" viewBox="0 0 24 12" fill="none" xmlns="http://www.w3.org/2000/svg">
<path d="M0.749982 1.49997H23.25C23.664 1.49997 24 1.16394 24 0.749983C24 0.335965 23.664 0 23.25 0H0.749982C0.335965 0 0 0.336027 0 0.749983C0 1.16394 0.336027 1.49997 0.749982 1.49997Z" fill="white"/>
<path d="M23.25 0H0.749982C0.335965 0 0 0.336027 0 0.749982C0 1.16394 0.336027 1.49996 0.749982 1.49996H23.25C23.664 1.49996 24 1.16394 24 0.749982C24 0.336027 23.664 0 23.25 0Z" transform="translate(0 5.25)" fill="white"/>
<path d="M15.75 0H0.749982C0.335964 0 0 0.336027 0 0.749982C0 1.164 0.336027 1.49996 0.749982 1.49996H15.75C16.164 1.49996 16.5 1.16394 16.5 0.749982C16.5 0.335965 16.164 0 15.75 0Z" transform="translate(7.50002 10.5)" fill="white"/>
</svg>
