<svg width="80" height="60" viewBox="0 0 80 60" fill="none" xmlns="http://www.w3.org/2000/svg">
<path d="M73.5123 0H6.48794C5.17436 0 4.10107 1.28887 4.10107 2.8663V53.8442C4.10107 55.4216 5.17436 56.7105 6.48794 56.7105H73.5123C74.8259 56.7105 75.8992 55.4216 75.8992 53.8442V2.8663C75.8992 1.28887 74.8259 0 73.5123 0Z" fill="#E4AE48"/>
<path d="M73.7207 4.92468H6.27979V50.824H73.7207V4.92468Z" fill="white"/>
<path d="M73.7207 4.92468H6.27979V9.52232H73.7207V4.92468Z" fill="#B28F20"/>
<path d="M72 49H8V11H72V49ZM8.32137 48.606H71.6786V11.394H8.32137V48.606Z" fill="#B28F20"/>
<path d="M21 39H17V49H21V39Z" fill="#B28F20"/>
<path d="M31 33H27V49H31V33Z" fill="#B28F20"/>
<path d="M41 27H37V49H41V27Z" fill="#B28F20"/>
<path d="M51 21H47V49H51V21Z" fill="#B28F20"/>
<path d="M61 19H57V49H61V19Z" fill="#B28F20"/>
<path d="M78.0777 60H1.92231C0.865039 60 0 58.9612 0 57.6916V55.7294H80V57.6916C80 58.9805 79.135 60 78.0777 60Z" fill="#E4AE48"/>
<path d="M33.0317 55.7487C33.0317 56.3835 33.4643 56.9029 33.9929 56.9029H46.0073C46.5359 56.9029 46.9685 56.3835 46.9685 55.7487H33.0317Z" fill="white"/>
</svg>
