<svg width="100" height="98" viewBox="0 0 100 98" fill="none" xmlns="http://www.w3.org/2000/svg">
<path d="M14.2354 -1.28151e-07H1.7643e-06V2.88497H14.2354C15.3274 2.88517 16.2159 3.77345 16.2159 4.86564C16.2159 5.18322 16.1428 5.48635 15.9987 5.76643L18.5641 7.08577C18.9151 6.40334 19.1007 5.63557 19.1007 4.86564C19.1009 2.18263 16.9182 -1.28151e-07 14.2354 -1.28151e-07Z" transform="translate(61.8758 4.92871)" fill="black"/>
<path d="M3.58419 0H-2.14578e-06V2.88497H3.58419V0Z" transform="translate(54.1301 4.92871)" fill="black"/>
<path d="M50.9682 0H0V2.88497H50.9682V0Z" transform="translate(17.9092 30.7437)" fill="black"/>
<path d="M50.9682 -2.24114e-06H0V2.88498H50.9682V-2.24114e-06Z" transform="translate(17.9092 83.3311)" fill="black"/>
<path d="M6.16995 -5.72207e-07L4.1299 2.03985L5.92365 3.8338L1.95504e-06 9.75746L2.03985 11.7975L10.0036 3.8338L6.16995 -5.72207e-07Z" transform="translate(79.6544 31.6782)" fill="black"/>
<path d="M2.71759 0H0V2.88478H2.71759V0Z" transform="translate(75.9279 45.1646) rotate(-45)" fill="black"/>
<path d="M97.6711 23.2235L96.6039 22.1563C93.5037 19.0559 88.4586 19.0559 85.3582 22.1563L84.315 23.1995L82.2749 25.2394L76.9874 30.5269V19.547C81.9785 19.1018 85.905 14.8991 85.905 9.79418C85.905 4.39377 81.5113 1.78815e-08 76.111 1.78815e-08H9.79398C4.39377 1.78815e-08 0 4.39357 0 9.79398V87.7738H8.35159V97.7623H76.9878V55.1528L94.5881 37.5525L96.1295 36.0109L96.6277 35.5126L97.6709 34.4695C99.1729 32.9675 100 30.9708 100 28.8468C100 26.7228 99.1732 24.7253 97.6711 23.2235ZM16.7286 2.88497H76.1112C79.921 2.88497 83.0203 5.9844 83.0203 9.79418C83.0203 13.604 79.9208 16.7032 76.1112 16.7032H16.7286C18.4946 14.9307 19.5882 12.4877 19.5882 9.79418C19.5882 7.10022 18.4948 4.65744 16.7286 2.88497ZM8.35159 16.703V84.8888H2.88497V9.79398C2.88497 5.9842 5.98459 2.88478 9.79418 2.88478C13.6038 2.88478 16.7032 5.9844 16.7032 9.79398C16.7032 13.6038 13.6036 16.703 9.79418 16.703H8.35159ZM74.103 94.8773H11.2364V19.5882H74.1028V33.4117L67.8485 39.6658H17.9087V42.5508H64.9639L58.9258 48.5889H17.9087V51.4738H56.041L50.0031 57.5117H17.9087V60.3967H47.1184L46.615 60.9L44.9742 66.4348H17.9087V69.3198H44.1191L42.3291 75.3579H17.9087V78.2429H68.8763V75.3579H51.6932L58.928 73.2134L62.8211 69.3202H68.8761V66.4352H65.7061L74.103 58.0383V94.8773ZM48.5877 64.3946L55.4328 71.2397L45.7037 74.1239L48.5877 64.3946ZM58.1666 69.8938L49.9336 61.6608L84.315 27.2794L92.548 35.5124L58.1666 69.8938ZM95.6314 32.4292L94.5883 33.4724L86.3552 25.2394L87.3984 24.1962C89.374 22.2206 92.5885 22.2206 94.5642 24.1962L95.6314 25.2634C96.5885 26.2204 97.1156 27.4929 97.1156 28.8462C97.1154 30.1997 96.5883 31.4722 95.6314 32.4292Z" fill="black"/>
</svg>
