<svg width="100" height="100" viewBox="0 0 100 100" fill="none" xmlns="http://www.w3.org/2000/svg">
<path d="M95 13.3333H77.3567L64.5117 0.488333C64.3704 0.348542 64.205 0.235625 64.0233 0.155C63.9717 0.131667 63.92 0.118333 63.8667 0.1C63.7294 0.0533333 63.5865 0.0247917 63.4417 0.015C63.405 0.0183333 63.3717 0 63.3333 0H23.3333C22.4129 0 21.6667 0.74625 21.6667 1.66667V13.3333H5C2.23854 13.3333 0 15.5719 0 18.3333V76.6667C0 79.4281 2.23854 81.6667 5 81.6667H38.3333V90H35C34.0796 90 33.3333 90.7462 33.3333 91.6667V96.6667H30V100H70V96.6667H66.6667V91.6667C66.6667 90.7462 65.9204 90 65 90H61.6667V81.6667H95C97.7615 81.6667 100 79.4281 100 76.6667V18.3333C100 15.5719 97.7615 13.3333 95 13.3333ZM65 5.69L72.6433 13.3333H65V5.69ZM25 3.33333H61.6667V15C61.6667 15.9204 62.4129 16.6667 63.3333 16.6667H75V66.6667H25V3.33333ZM3.33333 18.3333C3.33333 17.4129 4.07958 16.6667 5 16.6667H21.6667V66.6667H3.33333V18.3333ZM63.3333 93.3333V96.6667H36.6667V93.3333H63.3333ZM41.6667 90V81.6667H58.3333V90H41.6667ZM96.6667 76.6667C96.6667 77.5871 95.9204 78.3333 95 78.3333H5C4.07958 78.3333 3.33333 77.5871 3.33333 76.6667V70H96.6667V76.6667ZM96.6667 66.6667H78.3333V16.6667H95C95.9204 16.6667 96.6667 17.4129 96.6667 18.3333V66.6667Z" fill="black"/>
<path d="M40 6.66667C40 5.74625 39.2537 5 38.3333 5H31.6667C30.7463 5 30 5.74625 30 6.66667V31.6667H28.3333V13.3333C28.3333 12.4129 27.5871 11.6667 26.6667 11.6667H20C19.0796 11.6667 18.3333 12.4129 18.3333 13.3333V31.6667H16.6667V20C16.6667 19.0796 15.9204 18.3333 15 18.3333H8.33333C7.41292 18.3333 6.66667 19.0796 6.66667 20V31.6667H3.33333V0H0V33.3333C0 34.2537 0.74625 35 1.66667 35H43.3333V31.6667H40V6.66667ZM13.3333 31.6667H10V21.6667H13.3333V31.6667ZM25 31.6667H21.6667V15H25V31.6667ZM36.6667 31.6667H33.3333V8.33333H36.6667V31.6667Z" transform="translate(28.3333 18.3335)" fill="black"/>
<path d="M3.33333 0H0V3.33333H3.33333V0Z" transform="translate(28.3333 10)" fill="black"/>
<path d="M20 0H0V3.33333H20V0Z" transform="translate(35 10)" fill="black"/>
<path d="M6.66667 0H0V3.33333H6.66667V0Z" transform="translate(36.6667 56.6665)" fill="black"/>
<path d="M6.66667 0H0V3.33333H6.66667V0Z" transform="translate(48.3333 56.6665)" fill="black"/>
<path d="M6.66667 0H0V3.33333H6.66667V0Z" transform="translate(60 56.6665)" fill="black"/>
</svg>
