<svg width="28" height="56" viewBox="0 0 28 56" fill="none" xmlns="http://www.w3.org/2000/svg">
<path d="M0.000125398 5.83321V1.16669C0.000125398 0.690474 0.289529 0.260965 0.731617 0.0843269C0.872818 0.0273433 1.02091 0 1.1667 0C1.47886 0 1.78422 0.125342 2.00975 0.360057L27.6761 27.193C28.1067 27.6441 28.1067 28.355 27.6761 28.8062L2.00975 55.6391C1.67933 55.9832 1.17348 56.0949 0.731396 55.9148C0.289309 55.7382 -9.15597e-05 55.3087 -9.15597e-05 54.8325V50.1658C-9.15597e-05 49.8674 0.113875 49.5803 0.31895 49.3638L20.56 27.9996L0.31906 6.63535C0.113985 6.4189 0.000125398 6.1318 0.000125398 5.83321Z" fill="#488BE4"/>
</svg>
