<svg width="32" height="32" viewBox="0 0 32 32" fill="none" xmlns="http://www.w3.org/2000/svg">
<path d="M16 0C7.16342 0 0 7.16342 0 16C0 24.8366 7.16342 32 16 32C24.8366 32 32 24.8366 32 16C32 7.16342 24.8366 0 16 0ZM25.6753 11.7331C25.6828 11.922 25.6868 12.1112 25.6868 12.3014C25.6868 19.1362 20.4859 26.2056 11.7825 26.2056C9.12205 26.2056 6.5316 25.4465 4.29144 24.0097C4.24462 23.9799 4.22531 23.9219 4.24397 23.8699C4.26263 23.8181 4.31534 23.7861 4.36935 23.7923C4.74517 23.8371 5.12949 23.8594 5.51087 23.8594C7.58081 23.8594 9.54042 23.2194 11.1979 22.0052C9.21109 21.8376 7.50355 20.4931 6.88941 18.5751C6.87664 18.5351 6.88581 18.4916 6.91331 18.4602C6.94114 18.4287 6.98369 18.415 7.02429 18.4225C7.57492 18.5269 8.13471 18.5338 8.67421 18.4461C6.62523 17.8094 5.18515 15.89 5.18515 13.7048L5.1858 13.6413C5.18678 13.5998 5.20937 13.5618 5.24538 13.5412C5.28106 13.5202 5.32559 13.5199 5.3616 13.5402C5.89586 13.8368 6.48708 14.0273 7.09369 14.1003C5.91615 13.1617 5.22476 11.739 5.22476 10.2171C5.22476 9.33909 5.45719 8.47615 5.89717 7.72158C5.91681 7.68786 5.95151 7.66625 5.99014 7.6633C6.02909 7.65938 6.06674 7.6764 6.09129 7.70652C8.50136 10.6626 12.0464 12.4828 15.8373 12.7168C15.7741 12.3987 15.742 12.0706 15.742 11.7397C15.742 9.00256 17.9688 6.77614 20.7056 6.77614C22.051 6.77614 23.3513 7.32906 24.2833 8.29545C25.3339 8.08135 26.3346 7.69506 27.2591 7.14705C27.3013 7.12184 27.3544 7.12577 27.3933 7.15622C27.4313 7.18699 27.447 7.23806 27.4319 7.2852C27.1186 8.265 26.5078 9.11975 25.6871 9.73684C26.46 9.60229 27.21 9.3751 27.9233 9.05854C27.9711 9.0366 28.0277 9.05035 28.0621 9.09062C28.0962 9.13121 28.0991 9.18916 28.0696 9.23302C27.4198 10.2056 26.6145 11.0466 25.6753 11.7331Z" fill="white"/>
</svg>
